<svg width="1920" height="460" viewBox="0 0 1920 460" fill="none" xmlns="http://www.w3.org/2000/svg">
<g clip-path="url(#clip0_4_21)">
<g filter="url(#filter0_bdi_4_21)">
<path d="M928 42.5C841 156 517.6 289.2 -80 -86V-190H1992.5V190C1863.83 88 1543.8 -116.4 1293 -118C1042.2 -119.6 980.123 -25.5 928 42.5Z" fill="url(#paint0_linear_4_21)" fill-opacity="0.3" shape-rendering="crispEdges"/>
</g>
<g filter="url(#filter1_bdi_4_21)">
<path d="M427 -5C287.545 26.6808 334.5 112 -72 187.5V-168.5H2000.5V13.5C1871.83 -88.5 1697 106 1443 106C1082.5 106 662.5 -58.5 427 -5Z" fill="url(#paint1_linear_4_21)" fill-opacity="0.3" shape-rendering="crispEdges"/>
</g>
<path d="M882 168.372H891.188C891.63 172.129 895.545 174.592 900.596 174.592C905.679 174.592 909.152 172.161 909.152 168.814C909.152 165.846 906.974 164.205 901.48 162.973L895.545 161.679C887.146 159.879 883.01 155.617 883.01 148.955C883.01 140.557 890.272 135 900.438 135C911.047 135 917.709 140.462 917.866 148.702H908.931C908.616 144.851 905.237 142.514 900.47 142.514C895.766 142.514 892.608 144.756 892.608 148.134C892.608 150.944 894.818 152.523 900.06 153.723L905.585 154.891C914.709 156.848 918.687 160.763 918.687 167.709C918.687 176.549 911.52 182.138 900.217 182.138C889.262 182.138 882.284 176.928 882 168.372Z" fill="#1F1F1D"/>
<path d="M999.481 181.349V154.449H994.872V147.661H999.481V145.103C999.481 138.473 1002.61 135.379 1010.63 135.379C1012.33 135.379 1014.26 135.568 1015.33 135.789V141.883C1014.67 141.757 1013.75 141.693 1012.84 141.693C1009.81 141.693 1008.48 143.019 1008.48 145.419V147.661H1015.2V154.449H1008.7V181.349H999.481Z" fill="#1F1F1D"/>
<path d="M1022.53 139.704H1031.75V147.503H1038V154.449H1031.75V170.645C1031.75 173.234 1033.01 174.466 1035.73 174.466C1036.55 174.466 1037.4 174.403 1037.97 174.308V181.096C1037.02 181.317 1035.44 181.475 1033.58 181.475C1025.62 181.475 1022.53 178.823 1022.53 172.224V154.449H1017.76V147.503H1022.53V139.704Z" fill="#1F1F1D"/>
<path fill-rule="evenodd" clip-rule="evenodd" d="M923.991 135.789V181.349H933.211V162.026C933.211 157.574 935.768 154.512 940.125 154.512C944.324 154.512 946.471 157.164 946.471 161.521L955.537 157.101C954.712 150.727 950.574 146.871 943.882 146.871C938.736 146.871 935.042 149.271 933.242 153.533H933.053V135.789H923.991ZM946.471 175.223V181.349H955.69V170.869L946.471 175.223Z" fill="#1F1F1D"/>
<path d="M946.471 161.521V175.223L955.69 170.869V159.563C955.69 158.706 955.639 157.885 955.537 157.101L946.471 161.521Z" fill="#0071E3"/>
<path fill-rule="evenodd" clip-rule="evenodd" d="M981.99 168.94C981.99 172.603 978.675 175.223 974.665 175.223C971.54 175.223 969.456 173.645 969.456 171.119C969.456 168.719 971.413 167.172 974.855 166.92L981.99 166.478V168.94ZM960.3 171.624C960.3 177.718 965.194 181.885 971.634 181.885C975.865 181.885 980.064 179.77 981.959 176.171H982.148V181.349H991.052V158.08C991.052 156.779 990.846 155.564 990.454 154.449L981.987 158.448C981.989 158.514 981.99 158.581 981.99 158.648V160.889L976.076 161.24L973.466 161.395C966.602 161.806 962.188 164.247 960.784 168.463C960.464 169.425 960.3 170.48 960.3 171.624ZM962.965 153.481C965.07 149.368 969.924 146.777 976.718 146.777L962.965 153.481Z" fill="#1F1F1D"/>
<path d="M970.245 157.859C970.687 155.364 972.866 153.659 976.307 153.659C979.706 153.659 981.895 155.413 981.987 158.448L990.454 154.449C988.787 149.713 983.745 146.777 976.718 146.777L962.965 153.481C962.292 154.796 961.9 156.267 961.815 157.859H970.245Z" fill="#7DBEFF"/>
<path d="M904.272 342.481C904.053 340.535 905.791 338.993 907.726 339.291V339.291C914.581 340.349 921.507 340.88 928.444 340.88H929.094C930.779 340.88 932.163 342.155 932.634 343.772C935.497 353.597 946.687 359.868 960.771 359.868C976.289 359.868 986.892 352.446 986.892 342.229C986.892 341.769 986.874 341.319 986.84 340.88C986.19 332.663 979.389 327.966 963.47 324.398L949.638 321.381L945.751 320.533L945.349 320.446C919.711 314.952 907.084 301.94 907.084 281.602C907.084 255.964 929.253 239 960.289 239C991.125 239 1011.04 256.077 1013.29 279.427C1013.47 281.279 1011.81 282.726 1009.97 282.435V282.435C1003.24 281.367 996.432 280.831 989.616 280.831H989.108C987.474 280.831 986.143 279.566 985.78 277.974C983.494 267.927 973.72 261.94 960.386 261.94C946.024 261.94 936.386 268.783 936.386 279.096C936.386 279.693 936.418 280.271 936.484 280.831C937.368 288.339 944.245 292.749 959.133 296.157L970.268 298.511L974.533 299.413L976 299.723C1003.86 305.699 1016 317.651 1016 338.855C1016 365.843 994.12 382.904 959.614 382.904C927.8 382.904 906.975 366.557 904.272 342.481Z" fill="#1D1D1F"/>
<path fill-rule="evenodd" clip-rule="evenodd" d="M934.919 341.106C937.208 352.173 945.514 356.73 960.771 357.378C977.081 357.054 984.216 351.303 984.216 341.087V341.087C967.892 342.375 951.244 342.394 934.919 341.106V341.106Z" fill="#7DBEFF"/>
<path fill-rule="evenodd" clip-rule="evenodd" d="M983.351 280.582C983.568 272.081 974.378 263.973 962.378 263.51C948.017 263.51 938.378 270.353 938.378 280.667L939.35 280.582C953.989 279.309 968.712 279.309 983.351 280.582V280.582Z" fill="#0071E3"/>
<rect x="862" y="213" width="196" height="196" rx="38" stroke="#E2E2E2" stroke-width="4"/>
</g>
<defs>
<filter id="filter0_bdi_4_21" x="-124.2" y="-230.2" width="2160.9" height="468.4" filterUnits="userSpaceOnUse" color-interpolation-filters="sRGB">
<feFlood flood-opacity="0" result="BackgroundImageFix"/>
<feGaussianBlur in="BackgroundImageFix" stdDeviation="4.9"/>
<feComposite in2="SourceAlpha" operator="in" result="effect1_backgroundBlur_4_21"/>
<feColorMatrix in="SourceAlpha" type="matrix" values="0 0 0 0 0 0 0 0 0 0 0 0 0 0 0 0 0 0 127 0" result="hardAlpha"/>
<feOffset dy="4"/>
<feGaussianBlur stdDeviation="22.1"/>
<feComposite in2="hardAlpha" operator="out"/>
<feColorMatrix type="matrix" values="0 0 0 0 0 0 0 0 0 0.244018 0 0 0 0 0.490196 0 0 0 0.31 0"/>
<feBlend mode="normal" in2="effect1_backgroundBlur_4_21" result="effect2_dropShadow_4_21"/>
<feBlend mode="normal" in="SourceGraphic" in2="effect2_dropShadow_4_21" result="shape"/>
<feColorMatrix in="SourceAlpha" type="matrix" values="0 0 0 0 0 0 0 0 0 0 0 0 0 0 0 0 0 0 127 0" result="hardAlpha"/>
<feOffset dy="-12"/>
<feGaussianBlur stdDeviation="14.4"/>
<feComposite in2="hardAlpha" operator="arithmetic" k2="-1" k3="1"/>
<feColorMatrix type="matrix" values="0 0 0 0 0.833333 0 0 0 0 0.9163 0 0 0 0 1 0 0 0 0.58 0"/>
<feBlend mode="normal" in2="shape" result="effect3_innerShadow_4_21"/>
</filter>
<filter id="filter1_bdi_4_21" x="-116.2" y="-208.7" width="2160.9" height="444.4" filterUnits="userSpaceOnUse" color-interpolation-filters="sRGB">
<feFlood flood-opacity="0" result="BackgroundImageFix"/>
<feGaussianBlur in="BackgroundImageFix" stdDeviation="4.9"/>
<feComposite in2="SourceAlpha" operator="in" result="effect1_backgroundBlur_4_21"/>
<feColorMatrix in="SourceAlpha" type="matrix" values="0 0 0 0 0 0 0 0 0 0 0 0 0 0 0 0 0 0 127 0" result="hardAlpha"/>
<feOffset dy="4"/>
<feGaussianBlur stdDeviation="22.1"/>
<feComposite in2="hardAlpha" operator="out"/>
<feColorMatrix type="matrix" values="0 0 0 0 0 0 0 0 0 0.244018 0 0 0 0 0.490196 0 0 0 0.31 0"/>
<feBlend mode="normal" in2="effect1_backgroundBlur_4_21" result="effect2_dropShadow_4_21"/>
<feBlend mode="normal" in="SourceGraphic" in2="effect2_dropShadow_4_21" result="shape"/>
<feColorMatrix in="SourceAlpha" type="matrix" values="0 0 0 0 0 0 0 0 0 0 0 0 0 0 0 0 0 0 127 0" result="hardAlpha"/>
<feOffset dy="-12"/>
<feGaussianBlur stdDeviation="14.4"/>
<feComposite in2="hardAlpha" operator="arithmetic" k2="-1" k3="1"/>
<feColorMatrix type="matrix" values="0 0 0 0 0.833333 0 0 0 0 0.9163 0 0 0 0 1 0 0 0 0.58 0"/>
<feBlend mode="normal" in2="shape" result="effect3_innerShadow_4_21"/>
</filter>
<linearGradient id="paint0_linear_4_21" x1="1094.04" y1="-190" x2="818.458" y2="190" gradientUnits="userSpaceOnUse">
<stop stop-color="#0071E3"/>
<stop offset="1" stop-color="#003E7D"/>
</linearGradient>
<linearGradient id="paint1_linear_4_21" x1="1102.04" y1="-93" x2="826.458" y2="287" gradientUnits="userSpaceOnUse">
<stop stop-color="#0071E3"/>
<stop offset="1" stop-color="#003E7D"/>
</linearGradient>
<clipPath id="clip0_4_21">
<rect width="1920" height="460" fill="white"/>
</clipPath>
</defs>
</svg>
